<svg width="176" height="176" viewBox="0 0 176 176" fill="none" xmlns="http://www.w3.org/2000/svg">
<path d="M174.328 87.9697C174.328 92.5939 173.967 97.0979 173.247 101.542C171.385 113.493 167.061 124.603 160.755 134.392C154.69 143.94 146.763 152.168 137.514 158.714C123.522 168.562 106.406 174.328 87.9697 174.328C82.6849 174.328 77.5203 173.847 72.4757 172.946C59.6241 170.604 47.7334 165.44 37.5843 158.113C31.8191 153.969 26.5343 149.045 21.9702 143.64C16.4452 137.094 11.9411 129.767 8.51805 121.84C4.07404 111.451 1.67188 100.041 1.67188 88.0298C1.67188 85.4474 1.79198 82.8651 2.0322 80.3428C2.93301 70.3738 5.51534 60.8853 9.47892 52.1174C23.1112 22.3305 53.1383 1.67188 88.0298 1.67188C101.482 1.67188 114.213 4.73464 125.564 10.1996C140.337 17.346 152.708 28.5161 161.356 42.3285C163.938 46.4122 166.16 50.7962 168.022 55.3603C172.046 65.3893 174.328 76.4393 174.328 87.9697Z" fill="#121214"/>
<path d="M174.329 87.9702C174.329 92.5944 173.969 97.0985 173.248 101.542C169.525 106.287 164.48 110.551 157.934 114.334C143.822 123.222 97.0394 152.348 82.266 143.761C73.1979 134.993 77.3416 120.64 58.0042 123.582C45.3327 128.747 33.6222 136.074 21.9717 143.64C16.4467 137.095 11.9426 129.768 8.51953 121.841C10.5013 120.88 12.5432 119.919 14.4649 118.898C32.1208 109.289 50.1971 100.582 68.6938 92.7145C79.5035 88.2105 80.8247 91.5134 85.569 100.221C95.5981 110.851 146.164 72.176 167.903 55.3008C172.047 65.3899 174.329 76.4398 174.329 87.9702Z" fill="#28203E"/>
<path d="M161.297 42.3292C151.148 49.956 136.855 55.2408 126.766 60.7057C114.515 66.5911 98.9011 71.8158 86.5299 63.7085C78.0623 56.7422 73.1979 52.0579 61.7876 56.3818C45.8132 61.1261 30.079 66.8913 14.8252 73.5573C12.4831 74.5783 7.01819 78.0614 2.09375 80.2234C2.99456 70.2544 5.57689 60.7658 9.54047 51.9979C41.6694 30.3784 77.4017 17.8871 115.656 12.7225C119.019 11.9418 122.322 11.0409 125.625 10.0801C140.218 17.2866 152.65 28.5167 161.297 42.3292Z" fill="#28203E"/>
<path d="M76.0812 169.763C75.1803 170.724 73.9793 171.745 72.538 172.946C59.6864 170.604 47.7956 165.44 37.6465 158.113C42.8712 155.711 48.156 153.669 53.4407 151.987C58.185 150.486 63.2296 149.165 68.154 149.946C78.0629 151.147 82.8673 162.016 76.0812 169.763Z" fill="#28203E"/>
<path d="M160.818 134.392C154.752 143.94 146.825 152.168 137.577 158.714C129.109 157.212 125.086 152.528 134.214 144.961C141.781 139.736 151.389 135.533 160.818 134.392Z" fill="#28203E"/>
<path d="M112.713 120.46C113.314 118.418 113.674 116.316 113.794 114.154C114.755 96.6781 98.4805 82.5053 96.799 65.0896C96.2585 59.3845 97.2794 53.9195 99.081 48.6348C105.567 50.4364 111.752 53.9195 116.857 59.0241C132.771 74.9385 132.831 100.822 116.857 116.736C115.536 118.177 114.155 119.379 112.713 120.46Z" fill="#FAFAFA"/>
<path d="M59.0843 116.855C43.1099 100.881 43.1099 75.0575 59.0843 59.1432C61.1262 57.1013 63.2881 55.3598 65.5702 53.8584C65.5101 56.2606 65.5101 58.6627 65.6302 61.0649C66.1107 70.6736 68.6329 80.3423 74.3381 88.0893C78.4818 93.6743 84.0068 97.9382 88.9913 102.742C93.9758 107.547 98.4799 113.312 99.6209 120.158C99.9812 122.5 99.9812 124.842 99.6209 127.185C85.7484 131.208 70.0742 127.785 59.0843 116.855Z" fill="#F9E090"/>
<path d="M99.6214 127.125C99.9817 124.783 100.042 122.441 99.6214 120.099C98.4804 113.253 93.9163 107.488 88.9918 102.683C84.0073 97.879 78.4223 93.6151 74.3386 88.0301C68.6335 80.2831 66.1112 70.6144 65.6308 61.0057C65.5106 58.6036 65.5106 56.2014 65.5707 53.7992C75.5997 47.1933 87.9108 45.5118 99.0809 48.6946C97.2793 53.9794 96.1983 59.4443 96.7989 65.1495C98.5404 82.5652 114.755 96.738 113.794 114.214C113.674 116.376 113.314 118.418 112.713 120.519C108.69 123.522 104.246 125.744 99.6214 127.125Z" fill="#FBF5DD"/>
<path d="M43.9522 49.4146L39.6884 44.31L48.9968 45.2709L53.7411 41.3674L54.5218 32.059L58.7856 37.2236L62.6891 33.9807L54.4016 23.8916L50.4981 27.1345L49.3571 40.947L35.6647 39.3255L31.7012 42.5684L39.9886 52.6575L43.9522 49.4146Z" fill="white"/>
<path d="M88.0299 26.5342C88.6304 25.3931 88.8106 24.0719 88.5704 22.5706C88.2701 21.0692 87.6695 19.8682 86.6486 19.0274C85.6277 18.1866 84.2465 17.6462 82.3247 17.466C80.463 17.2858 78.0609 17.466 75.1182 17.9464C72.1756 18.4869 69.8935 19.1475 68.212 19.9883C66.5305 20.829 65.3895 21.8499 64.7289 22.991C64.0683 24.132 63.9482 25.4532 64.1884 26.9545C64.4286 28.4559 65.0892 29.657 66.1101 30.4977C67.131 31.3385 68.5123 31.879 70.434 32.0592C72.2957 32.2393 74.6978 32.0592 77.6405 31.5787C80.5832 31.0382 82.8652 30.3776 84.5467 29.5369C86.2282 28.6961 87.4293 27.6752 88.0299 26.5342ZM82.625 25.5133C82.1446 26.0537 81.4239 26.4741 80.463 26.8344C79.5022 27.1948 78.3011 27.495 76.9199 27.7353C75.5386 27.9755 74.3375 28.0956 73.2565 28.1556C72.1756 28.1556 71.3348 28.0355 70.6742 27.6752C70.0136 27.3749 69.5932 26.7744 69.4731 25.9937C69.353 25.213 69.5332 24.4923 70.0136 23.9518C70.4941 23.4114 71.2748 22.991 72.2957 22.6306C73.3166 22.2703 74.5177 21.9701 75.8989 21.7298C77.2802 21.4896 78.4813 21.3695 79.5022 21.3095C80.5231 21.3095 81.3639 21.4296 82.0245 21.7899C82.625 22.1502 83.0454 22.6907 83.1655 23.4714C83.2856 24.3122 83.1054 24.9728 82.625 25.5133Z" fill="white"/>
<path d="M97.3404 30.1373C98.9619 31.1582 101.124 32.059 104.006 32.8998C106.829 33.7406 109.231 34.1609 111.093 34.1609C112.955 34.1609 114.456 33.8006 115.537 33.0199C116.618 32.2392 117.338 31.1582 117.819 29.7169C118.239 28.2756 118.179 26.8944 117.699 25.6933C117.218 24.4922 116.137 23.3512 114.576 22.3303C112.955 21.3093 110.793 20.4085 107.91 19.5678C105.027 18.727 102.685 18.3066 100.824 18.3066C98.9619 18.3066 97.4606 18.667 96.3796 19.4477C95.2986 20.2284 94.578 21.3093 94.0975 22.7506C93.6771 24.1919 93.7372 25.5732 94.2176 26.7743C94.6981 28.0354 95.779 29.1764 97.3404 30.1373ZM99.2021 24.3121C99.4423 23.5314 99.8627 22.9909 100.583 22.7506C101.304 22.5104 102.145 22.4504 103.226 22.5705C104.307 22.6906 105.508 22.9909 106.829 23.3512C108.15 23.7716 109.291 24.1919 110.252 24.6123C111.213 25.0327 111.874 25.5732 112.294 26.1737C112.714 26.7743 112.774 27.4349 112.594 28.2156C112.354 28.9963 111.934 29.5368 111.273 29.777C110.612 30.0172 109.772 30.1373 108.751 30.0172C107.73 29.8971 106.529 29.6569 105.208 29.2365C103.886 28.8161 102.685 28.3957 101.724 27.9754C100.764 27.4949 100.043 27.0145 99.6225 26.414C99.2021 25.8134 98.9619 25.0928 99.2021 24.3121Z" fill="white"/>
<path d="M127.367 35.1816L131.991 50.015L135.775 53.4981L144.603 43.8294L140.819 40.4063L135.474 46.2316L130.91 31.2781L127.187 27.7949L118.299 37.4636L122.082 40.8867L127.367 35.1816Z" fill="white"/>
<path d="M46.113 124.723L32.6008 121.72L36.0839 108.328L33.4416 104.004L22.2715 110.79L24.9739 115.174L30.619 111.691L28.337 120.759L31.5799 125.984L40.7081 128.026L34.9429 131.569L37.6454 135.893L48.7554 129.107L46.113 124.723Z" fill="white"/>
<path d="M52.3579 129.808L44.3379 140.155L48.3726 143.282L56.3926 132.935L52.3579 129.808Z" fill="white"/>
<path d="M67.3708 138.415C65.389 137.635 63.6475 137.094 62.2062 136.854C60.7649 136.614 59.5638 136.674 58.663 137.034C57.7622 137.395 57.1016 138.055 56.7412 139.016C56.501 139.557 56.441 140.097 56.5611 140.638C56.6812 141.118 56.9815 141.658 57.4619 142.139C57.9423 142.619 58.6029 143.1 59.5037 143.64C60.3445 144.121 61.4255 144.601 62.6866 145.142C64.3681 145.802 65.6893 146.403 66.5901 146.823C67.4909 147.243 68.0915 147.604 68.4518 147.904C68.7521 148.204 68.8722 148.445 68.7521 148.685C68.632 148.925 68.4518 149.105 68.1515 149.165C67.8513 149.225 67.4309 149.165 66.8904 148.985C66.3499 148.805 65.5692 148.565 64.6083 148.144C63.6475 147.784 62.8067 147.364 62.1461 147.003C61.4855 146.643 60.945 146.223 60.5847 145.862C60.2244 145.502 60.0442 145.202 60.1043 144.901L54.9396 142.799C54.6994 143.4 54.6393 144.001 54.6994 144.601C54.7594 145.202 54.9997 145.802 55.42 146.463C55.7804 147.063 56.3209 147.664 56.9815 148.264C57.6421 148.865 58.4828 149.405 59.3836 149.946C60.2844 150.486 61.4255 151.027 62.6265 151.507C64.7284 152.348 66.5301 152.889 67.9714 153.129C69.4127 153.369 70.5537 153.309 71.3945 152.949C72.2352 152.588 72.8358 151.928 73.2561 150.967C73.4963 150.426 73.5564 149.886 73.4363 149.345C73.3162 148.805 73.076 148.324 72.5955 147.844C72.1151 147.364 71.4545 146.823 70.5537 146.343C69.6529 145.802 68.5119 145.322 67.1907 144.721C65.9896 144.241 64.9687 143.82 64.188 143.46C63.4073 143.1 62.8067 142.799 62.3863 142.559C61.966 142.319 61.7257 142.079 61.6056 141.899C61.4855 141.718 61.4255 141.538 61.5456 141.358C61.6657 140.998 62.1461 140.878 62.8067 140.998C63.5274 141.118 64.4882 141.418 65.8094 141.959C67.1306 142.499 68.0915 143.04 68.7521 143.52C69.3526 144.061 69.6529 144.481 69.5328 144.961L74.4572 146.943C75.1178 145.382 74.8175 143.82 73.6165 142.379C72.3553 140.878 70.3135 139.557 67.3708 138.415Z" fill="white"/>
<path d="M96.0797 149.104C95.4191 148.804 94.6384 148.624 93.6175 148.504C92.5966 148.384 91.3354 148.324 89.8941 148.324C88.573 148.324 87.492 148.324 86.6512 148.324C85.8105 148.324 85.1499 148.263 84.6694 148.203C84.189 148.143 83.8887 148.023 83.6485 147.903C83.4683 147.783 83.3482 147.603 83.3482 147.423C83.3482 147.002 83.7086 146.762 84.3692 146.582C85.0297 146.402 86.1107 146.282 87.492 146.282C88.9333 146.282 90.0143 146.342 90.795 146.582C91.5757 146.822 91.996 147.122 92.0561 147.603L97.3409 147.543C97.3409 145.861 96.44 144.54 94.8186 143.699C93.1371 142.799 90.7349 142.378 87.6121 142.438C85.4501 142.498 83.7086 142.678 82.2673 143.039C80.826 143.399 79.805 143.94 79.0844 144.6C78.4238 145.261 78.0635 146.162 78.0635 147.183C78.0635 147.783 78.2436 148.264 78.5439 148.744C78.8442 149.224 79.3246 149.525 79.9852 149.765C80.6458 150.005 81.4265 150.245 82.4474 150.365C83.4083 150.486 84.6094 150.546 85.9906 150.486C87.7922 150.486 89.2335 150.486 90.2545 150.486C91.2754 150.486 91.936 150.606 92.3564 150.726C92.7767 150.846 92.9569 151.086 92.9569 151.326C92.9569 151.627 92.8368 151.807 92.5966 151.987C92.3564 152.167 91.936 152.287 91.3354 152.347C90.7349 152.407 89.9542 152.467 88.9333 152.467C87.9124 152.467 87.0115 152.467 86.2308 152.347C85.4501 152.287 84.8496 152.107 84.3692 151.927C83.8887 151.747 83.6485 151.506 83.5284 151.206L77.9434 151.326C77.9434 151.987 78.1235 152.587 78.4238 153.128C78.7241 153.668 79.2045 154.149 79.805 154.569C80.4056 154.99 81.1262 155.35 81.967 155.59C82.8077 155.89 83.7686 156.071 84.8496 156.191C85.9306 156.311 87.1317 156.371 88.3928 156.371C90.6748 156.311 92.5365 156.131 93.9178 155.83C95.299 155.47 96.38 154.99 96.9805 154.329C97.5811 153.668 97.9414 152.828 97.9414 151.807C97.9414 151.206 97.7612 150.666 97.461 150.245C97.1607 149.705 96.7403 149.344 96.0797 149.104Z" fill="white"/>
<path d="M105.329 140.119L100.414 141.498L103.951 154.103L108.866 152.724L105.329 140.119Z" fill="white"/>
<path d="M129.469 129.408C128.208 129.047 126.707 129.107 124.905 129.708C123.103 130.308 121.001 131.389 118.539 133.071C116.077 134.752 114.275 136.314 113.074 137.755C111.873 139.196 111.213 140.578 111.092 141.899C110.972 143.22 111.393 144.481 112.233 145.742C113.074 147.003 114.155 147.844 115.416 148.204C116.677 148.565 118.179 148.505 119.98 147.904C121.782 147.304 123.884 146.223 126.346 144.541C128.808 142.86 130.61 141.298 131.811 139.857C133.012 138.416 133.673 137.034 133.793 135.713C133.913 134.392 133.493 133.131 132.652 131.87C131.811 130.609 130.73 129.768 129.469 129.408ZM128.448 136.974C128.208 137.635 127.727 138.356 127.007 139.076C126.286 139.797 125.325 140.518 124.124 141.358C122.983 142.139 121.902 142.74 120.941 143.22C119.98 143.7 119.14 143.881 118.359 143.821C117.638 143.76 117.038 143.46 116.557 142.74C116.077 142.079 116.017 141.358 116.257 140.698C116.497 139.977 116.978 139.256 117.758 138.536C118.539 137.815 119.5 137.034 120.641 136.254C121.782 135.473 122.863 134.872 123.764 134.452C124.725 134.032 125.505 133.852 126.226 133.852C126.947 133.852 127.547 134.272 127.968 134.933C128.568 135.653 128.688 136.314 128.448 136.974Z" fill="white"/>
<path d="M153.25 110.31L141.779 104.004L139.317 108.448L146.283 112.291L132.831 120.279L130.369 124.783L141.839 131.028L144.302 126.584L137.456 122.801L150.788 114.754L153.25 110.31Z" fill="white"/>
<path d="M36.3843 77.0405C31.0996 77.0405 26.8357 83.166 26.8357 90.6728C26.8357 83.166 22.5719 77.0405 17.2871 77.0405C22.5719 77.0405 26.8357 70.915 26.8357 63.4082C26.8357 70.975 31.1596 77.0405 36.3843 77.0405Z" fill="#F3EEFC"/>
<path d="M148.025 83.1053C144.722 83.1053 142.019 86.9488 142.019 91.6931C142.019 86.9488 139.317 83.1053 136.014 83.1053C139.317 83.1053 142.019 79.2619 142.019 74.5176C142.019 79.2619 144.722 83.1053 148.025 83.1053Z" fill="#F3EEFC"/>
<path d="M157.695 70.3136C156.013 70.3136 154.692 72.2354 154.692 74.5775C154.692 72.2354 153.371 70.3136 151.689 70.3136C153.371 70.3136 154.692 68.3919 154.692 66.0498C154.692 68.3919 156.013 70.3136 157.695 70.3136Z" fill="#F3EEFC"/>
<path d="M83.225 113.552C82.9248 113.672 82.6845 113.732 82.3843 113.852C81.8438 114.033 81.3634 114.453 81.1231 114.993C80.8829 115.474 80.8229 116.134 81.0631 116.675C81.3033 117.215 81.6636 117.696 82.2041 117.936C82.7446 118.176 83.3451 118.236 83.8856 117.996C84.1859 117.876 84.4261 117.816 84.7264 117.696C85.2669 117.516 85.7473 117.095 85.9875 116.555C86.2277 116.074 86.2878 115.414 86.0476 114.873C85.8074 114.333 85.447 113.852 84.9065 113.612C84.3661 113.432 83.7655 113.372 83.225 113.552Z" fill="#F6BC72"/>
<path d="M69.173 112.172C64.5488 113.854 67.1312 121 71.7553 119.379C76.3795 117.697 73.7972 110.491 69.173 112.172Z" fill="#F6BC72"/>
<path d="M54.4007 80.0426C54.7611 80.2228 55.1214 80.2828 55.5418 80.2828C55.9621 80.3429 56.3225 80.2828 56.7428 80.1627C56.9831 80.0426 57.2233 79.9225 57.4635 79.8024C57.8839 79.5021 58.2442 79.0818 58.4244 78.6013C58.4844 78.3611 58.6045 78.1209 58.6646 77.8807C58.7847 77.3402 58.7246 76.7997 58.5445 76.3193C58.4844 76.1391 58.4244 75.9589 58.3643 75.7788C58.2442 75.3584 58.004 75.0581 57.7037 74.7579C57.4635 74.4576 57.1632 74.2174 56.8029 74.0372C56.4426 73.857 56.0822 73.797 55.6619 73.797C55.2415 73.7369 54.8812 73.797 54.4608 73.9171C54.2206 74.0372 53.9804 74.1573 53.7401 74.2774C53.3198 74.5777 52.9594 74.9981 52.7793 75.4785C52.7192 75.7187 52.5991 75.9589 52.5391 76.1992C52.4189 76.7397 52.479 77.2801 52.6592 77.7606C52.7192 77.9407 52.7793 78.1209 52.8393 78.3011C52.9594 78.7214 53.1996 79.0217 53.4999 79.322C53.7401 79.6823 54.0404 79.9225 54.4007 80.0426Z" fill="#F6BC72"/>
<path d="M94.5163 116.735C94.3962 116.555 94.216 116.435 93.9758 116.314C93.7956 116.194 93.5554 116.134 93.3152 116.134C93.075 116.074 92.8348 116.134 92.5945 116.194C92.4744 116.254 92.2943 116.314 92.1742 116.435C91.9339 116.615 91.7538 116.855 91.5736 117.155C91.5136 117.275 91.4535 117.455 91.4535 117.576C91.3935 117.876 91.3935 118.176 91.5136 118.476C91.5736 118.596 91.5736 118.717 91.6337 118.837C91.6937 119.077 91.8138 119.257 91.994 119.437C92.1141 119.617 92.2943 119.737 92.5345 119.858C92.7146 119.978 92.9549 120.038 93.1951 120.038C93.4353 120.098 93.6755 120.038 93.9157 119.978C94.0358 119.918 94.216 119.858 94.3361 119.738C94.5763 119.557 94.7565 119.317 94.9367 119.017C94.9967 118.897 95.0568 118.717 95.0568 118.596C95.1168 118.296 95.1168 117.996 94.9967 117.696C94.9367 117.576 94.9366 117.455 94.8766 117.335C94.8165 117.095 94.6964 116.915 94.5163 116.735Z" fill="#F6BC72"/>
<path d="M64.7891 77.1001C65.0293 77.1602 65.2695 77.2803 65.5097 77.3403C66.0502 77.4604 66.5907 77.4004 67.0711 77.2202C67.3113 77.1001 67.5516 76.98 67.7918 76.8599C68.2121 76.5596 68.5725 76.1393 68.7526 75.6588C68.8127 75.5387 68.8727 75.4186 68.9328 75.2985C69.113 74.9382 69.173 74.5778 69.173 74.1575C69.2331 73.7371 69.173 73.3768 69.0529 72.9564C68.9328 72.536 68.6926 72.2357 68.3923 71.9355C68.1521 71.6352 67.8518 71.395 67.4915 71.2148C67.2513 71.1548 67.0111 71.0347 66.7708 70.9746C66.2304 70.8545 65.6899 70.9145 65.2094 71.0947C64.9692 71.2148 64.729 71.3349 64.4888 71.455C64.0684 71.7553 63.7081 72.1757 63.5279 72.6561C63.4679 72.7762 63.4078 72.8963 63.3478 73.0164C63.1676 73.3768 63.1075 73.7371 63.1075 74.1575C63.0475 74.5778 63.1075 74.9382 63.2277 75.3586C63.3478 75.7789 63.588 76.0792 63.8883 76.3795C64.1285 76.6797 64.4287 76.92 64.7891 77.1001Z" fill="#F6BC72"/>
<path d="M77.8811 72.2352C78.0012 72.1751 78.1814 72.1151 78.3015 71.995C78.6018 71.8148 78.7819 71.5746 78.9021 71.2743C78.9621 71.0942 79.0222 70.9741 79.0222 70.7939C79.0822 70.4936 79.0222 70.1333 78.9621 69.833C78.9621 69.773 78.9021 69.6529 78.9021 69.5928C78.842 69.3526 78.7219 69.1724 78.5417 68.9923C78.3616 68.8121 78.1814 68.6319 77.9412 68.5719C77.701 68.4518 77.4608 68.3917 77.2205 68.3917C76.9803 68.3317 76.7401 68.3917 76.4999 68.5118C76.3798 68.5719 76.1996 68.6319 76.0795 68.752C75.7792 68.9322 75.5991 69.1724 75.479 69.4727C75.4189 69.6529 75.3589 69.773 75.3589 69.9531C75.2988 70.2534 75.3589 70.6137 75.4189 70.914C75.4189 70.9741 75.479 71.0942 75.479 71.1542C75.539 71.3944 75.6591 71.5746 75.8393 71.7548C76.0195 71.9349 76.1996 72.1151 76.4398 72.1751C76.68 72.2952 76.9203 72.3553 77.1605 72.3553C77.4007 72.3553 77.6409 72.2952 77.8811 72.2352Z" fill="#F6BC72"/>
<path d="M72.8965 91.9931C73.3169 92.1132 73.7373 92.2934 74.1577 92.4135C75.0585 92.5937 76.0193 92.5336 76.8601 92.1733C77.2805 91.9331 77.7008 91.7529 78.1212 91.5127C78.9019 90.9722 79.4424 90.3116 79.8628 89.4708C79.9829 89.2306 80.103 89.0505 80.1631 88.8102C80.4633 88.2097 80.6435 87.5491 80.5835 86.8284C80.7036 86.1078 80.5834 85.4472 80.3432 84.7866C80.103 84.126 79.7427 83.5255 79.2623 83.045C78.8419 82.5045 78.3014 82.0842 77.7009 81.844C77.2805 81.7238 76.8601 81.5437 76.4397 81.4236C75.5389 81.2434 74.578 81.3035 73.7373 81.6638C73.3169 81.904 72.8965 82.0842 72.4761 82.3244C71.6954 82.8649 71.1549 83.5255 70.7346 84.3662C70.6145 84.6064 70.4943 84.7866 70.4343 85.0268C70.134 85.6274 69.9539 86.288 70.0139 87.0086C69.8938 87.7293 70.0139 88.3899 70.2541 89.0505C70.4944 89.711 70.8547 90.3116 71.3351 90.792C71.7555 91.2725 72.296 91.6928 72.8965 91.9931Z" fill="#F6BC72"/>
<path d="M59.2051 92.5939C59.5654 92.714 59.9858 92.8341 60.3461 92.9542C61.1868 93.1344 61.9676 93.0142 62.8083 92.774C63.1686 92.5939 63.529 92.4137 63.9493 92.1735C64.6099 91.6931 65.1504 91.0925 65.5107 90.3719C65.6309 90.1917 65.6909 89.9515 65.811 89.7713C66.1113 89.2308 66.2314 88.6303 66.2314 88.0297C66.2915 87.4292 66.2314 86.7686 65.9912 86.2281C65.811 85.6276 65.4507 85.0871 65.0303 84.6667C64.67 84.1863 64.1896 83.826 63.589 83.5857C63.2287 83.4656 62.8083 83.3455 62.448 83.2254C61.6072 83.0453 60.8265 83.1654 59.9858 83.4056C59.6254 83.5857 59.2651 83.7659 58.8447 84.0061C58.1841 84.4866 57.6437 85.0871 57.2833 85.8077C57.1632 85.9879 57.1032 86.2281 56.9831 86.4083C56.6828 86.9488 56.5627 87.5493 56.5627 88.1499C56.5026 88.7504 56.5627 89.411 56.8029 89.9515C56.9831 90.552 57.3434 91.0925 57.7638 91.5129C58.1841 91.9933 58.6646 92.3537 59.2051 92.5939Z" fill="#F6BC72"/>
<path d="M85.3881 94.4549C85.4482 94.4549 85.5083 94.515 85.6284 94.515C85.8085 94.515 85.9286 94.515 86.1088 94.4549C86.1689 94.3949 86.2289 94.3949 86.349 94.3348C86.4691 94.2147 86.5892 94.0946 86.6493 93.9745C86.6493 93.9144 86.7093 93.9144 86.7093 93.8544C86.7694 93.7343 86.7694 93.6142 86.7694 93.4941C86.7694 93.374 86.7694 93.2539 86.7093 93.1337C86.6493 93.0136 86.5892 92.8935 86.5292 92.8335C86.4691 92.7134 86.349 92.6533 86.2289 92.5933C86.1688 92.5933 86.1088 92.5332 85.9887 92.5332C85.8085 92.5332 85.6884 92.5332 85.5083 92.5933C85.4482 92.6533 85.3881 92.6533 85.268 92.7134C85.1479 92.8335 85.0278 92.9536 84.9678 93.0737C84.9678 93.1337 84.9077 93.1337 84.9077 93.1938C84.8477 93.3139 84.8477 93.434 84.8477 93.5541C84.8477 93.6742 84.8477 93.7943 84.9077 93.9145C84.9678 94.0346 85.0278 94.1547 85.0879 94.2147C85.208 94.3348 85.268 94.3949 85.3881 94.4549Z" fill="#F6BC72"/>
<path d="M68.7544 63.0471C71.1566 62.2063 69.8354 58.4229 67.4332 59.2637C65.031 60.1645 66.3522 63.8878 68.7544 63.0471Z" fill="#F6BC72"/>
<path d="M74.6384 101.542C72.8368 102.804 72.3564 104.965 72.8968 106.887C72.8968 106.947 72.8968 106.947 72.9569 107.007C73.0169 107.127 73.0169 107.248 73.077 107.368C73.077 107.428 73.1371 107.488 73.1371 107.548C73.1371 107.608 73.1971 107.668 73.2572 107.728C73.3172 107.848 73.3773 107.968 73.4373 108.088C73.4974 108.148 73.4974 108.208 73.5574 108.268C74.0379 109.049 74.6985 109.71 75.5392 110.13C75.8995 110.31 76.3199 110.43 76.7403 110.43C77.0406 110.49 77.3408 110.55 77.6411 110.55C80.824 110.611 83.3463 107.007 82.3253 104.005C81.1843 100.942 77.2808 99.6206 74.6384 101.542Z" fill="#F6BC72"/>
<path d="M55.9613 91.6932C52.7184 94.0353 51.8776 97.8788 52.8385 101.302C52.8385 101.362 52.8986 101.422 52.8986 101.542C52.9586 101.782 53.0187 101.962 53.1388 102.203C53.1988 102.323 53.1988 102.383 53.2589 102.503C53.3189 102.623 53.379 102.683 53.439 102.803C53.5592 102.983 53.6192 103.224 53.7393 103.404C53.7994 103.524 53.8594 103.644 53.9795 103.764C54.8203 105.145 56.0214 106.346 57.5828 107.127C58.2434 107.487 59.0241 107.608 59.8048 107.608C60.3453 107.728 60.8858 107.788 61.4863 107.788C67.2515 107.908 71.7556 101.422 69.8939 96.0171C67.852 90.6122 60.7656 88.3302 55.9613 91.6932Z" fill="#F6BC72"/>
<path fill-rule="evenodd" clip-rule="evenodd" d="M88.03 3.3443C53.8179 3.3443 24.3723 23.5979 11.0014 52.8097C7.11323 61.4118 4.5812 70.7177 3.69784 80.4936L3.69709 80.5016C3.46205 82.9696 3.3443 85.499 3.3443 88.03C3.3443 99.8146 5.70053 111 10.0546 121.18C13.4142 128.96 17.8321 136.145 23.248 142.561C27.7261 147.864 32.9101 152.694 38.5605 156.755L38.5633 156.757C48.5117 163.939 60.1696 169.004 72.7721 171.301C77.7223 172.185 82.7879 172.656 87.97 172.656C106.053 172.656 122.834 167.002 136.552 157.347C145.627 150.922 153.4 142.853 159.344 133.495L159.35 133.486C165.531 123.89 169.77 113 171.595 101.285L171.596 101.275C172.302 96.9208 172.656 92.5063 172.656 87.97C172.656 76.6623 170.418 65.8247 166.472 55.9874C164.645 51.5084 162.467 47.2147 159.943 43.2225L159.939 43.2162C151.457 29.668 139.323 18.7134 124.836 11.7052C113.708 6.34777 101.225 3.3443 88.03 3.3443ZM7.95871 51.4218C21.8532 21.0619 52.4607 0 88.03 0C101.738 0 114.717 3.1216 126.289 8.69323L126.292 8.69456C141.35 15.9785 153.957 27.3621 162.77 41.4365C165.409 45.6099 167.675 50.082 169.57 54.729L169.574 54.7379C173.674 64.9576 176 76.2185 176 87.97C176 92.6802 175.633 97.272 174.898 101.805C173 113.987 168.592 125.314 162.164 135.293C155.979 145.029 147.899 153.412 138.481 160.079L138.477 160.081C124.21 170.123 106.76 176 87.97 176C82.5833 176 77.3203 175.51 72.1821 174.593L72.1762 174.592C59.0775 172.204 46.9558 166.94 36.6072 159.47C30.7277 155.244 25.3427 150.225 20.6929 144.719L20.6926 144.719C15.0593 138.044 10.4695 130.577 6.98319 122.503L6.98092 122.498C2.44768 111.9 0 100.266 0 88.03C0 85.3978 0.122342 82.7639 0.367473 80.1886C1.28595 70.0292 3.9179 60.3605 7.9555 51.4288L7.95871 51.4218Z" fill="white"/>
</svg>
